# xmcd
#
# Track frame offsets:
#	150
#	11755
#	23919
#	35129
#	51783
#	64258
#	75708
#	85437
#	98928
#	110843
#	122725
#	134056
#
# Disc length: 1948 seconds
#
# Revision: 0
# Processed by: cddbd v1.5.1PL2 Copyright (c) Steve Scherf et al.
# Submitted via: dBpowerAMP V4.0
#
DISCID=ae079a0c
DTITLE=Memphis Slim - Really Got The Blues
DYEAR=2005
DGENRE=Blues
TTITLE0=Let the Good Times Roll
TTITLE1=Mother Earth
TTITLE2=Lonesome
TTITLE3=Cold Blooded Woman
TTITLE4=Four Walls
TTITLE5=It's Been So Long
TTITLE6=Big Bertha
TTITLE7=Slim's Blues
TTITLE8=Tijuana
TTITLE9=Really Got The Blues
TTITLE10=Feeling Low
TTITLE11=Blues For My Baby
EXTD=
EXTT0=
EXTT1=
EXTT2=
EXTT3=
EXTT4=
EXTT5=
EXTT6=
EXTT7=
EXTT8=
EXTT9=
EXTT10=
EXTT11=
PLAYORDER=
